<svg viewBox="0 0 300 208.2" xmlns="http://www.w3.org/2000/svg"><path d="m288.84 61.32c.15-1.4.25-2.81.29-4.22a55.38 55.38 0 0 0 -.71-10.68 55.47 55.47 0 0 0 -13.76-28.42 55.34 55.34 0 0 0 -17.76-12.93 56.1 56.1 0 0 0 -10.61-3.64 55.46 55.46 0 0 0 -66.46 41.44c-.14.6-.27 1.2-.39 1.81a13.71 13.71 0 0 0 -5.36.58 27.29 27.29 0 0 0 -48.16 0 13.71 13.71 0 0 0 -5.36-.58c-.12-.61-.25-1.21-.39-1.81a55.52 55.52 0 0 0 -16.59-28.37 55.54 55.54 0 0 0 -28.4-13.76 55.32 55.32 0 0 0 -21.47.69 55.43 55.43 0 0 0 -42.84 55.67c0 1.41.14 2.82.29 4.22a22.51 22.51 0 0 1 -11.16 2.45 150.11 150.11 0 0 0 300 0 22.51 22.51 0 0 1 -11.16-2.45z" fill="#f4efea" opacity=".85"/></svg>