<svg viewBox="0 0 300 300" xmlns="http://www.w3.org/2000/svg" xmlns:xlink="http://www.w3.org/1999/xlink"><radialGradient id="a" cx="149.99" cy="150.01" gradientTransform="matrix(.43 .93 -.93 .43 225.65 -54.25)" gradientUnits="userSpaceOnUse" r="146.05"><stop offset="0" stop-color="#144a7f"/><stop offset=".47" stop-color="#14487d"/><stop offset=".71" stop-color="#124375"/><stop offset=".89" stop-color="#0f3968"/><stop offset="1" stop-color="#0d305c"/></radialGradient><linearGradient id="b" gradientTransform="matrix(.41754992 .90865399 -.90865399 .41754992 223.68 -48.92)" gradientUnits="userSpaceOnUse" x1="193.47" x2="175.44" y1="25.44" y2="127.67"><stop offset="0" stop-color="#f2cbb1"/><stop offset=".08" stop-color="#ecbfa0"/><stop offset=".2" stop-color="#e7b28e"/><stop offset=".34" stop-color="#e3a982"/><stop offset=".53" stop-color="#e1a47b"/><stop offset="1" stop-color="#e0a379"/></linearGradient><linearGradient id="c" x1="63.14" x2="166.94" xlink:href="#b" y1="226.06" y2="226.06"/><linearGradient id="d" x1="41.72" x2="72.29" xlink:href="#b" y1="116.09" y2="116.09"/><linearGradient id="e" x1="35.49" x2="61.82" xlink:href="#b" y1="66.34" y2="66.34"/><linearGradient id="f" x1="10.67" x2="37.28" xlink:href="#b" y1="171" y2="171"/><linearGradient id="g" x1="86.32" x2="103.59" xlink:href="#b" y1="120.76" y2="120.76"/><linearGradient id="h" x1="64.7" x2="81.53" xlink:href="#b" y1="162.66" y2="162.66"/><linearGradient id="i" x1="27.47" x2="44.34" xlink:href="#b" y1="214.22" y2="214.22"/><linearGradient id="j" x1="114.98" x2="132.11" xlink:href="#b" y1="124.43" y2="124.43"/><linearGradient id="k" x1="93.98" x2="110.88" xlink:href="#b" y1="74.38" y2="74.38"/><linearGradient id="l" x1="84.62" x2="101.63" xlink:href="#b" y1="33.68" y2="33.68"/><linearGradient id="m" x1="9.23" x2="26.18" xlink:href="#b" y1="116.16" y2="116.16"/><linearGradient id="n" x1="125.07" x2="142.01" xlink:href="#b" y1="14.36" y2="14.36"/><linearGradient id="o" x1="225.89" x2="256.46" xlink:href="#b" y1="180.36" y2="180.36"/><linearGradient id="p" x1="236.35" x2="262.68" xlink:href="#b" y1="230.11" y2="230.11"/><linearGradient id="q" x1="260.9" x2="287.5" xlink:href="#b" y1="125.46" y2="125.46"/><linearGradient id="r" x1="194.58" x2="211.86" xlink:href="#b" y1="175.7" y2="175.7"/><linearGradient id="s" x1="216.65" x2="233.47" xlink:href="#b" y1="133.8" y2="133.8"/><linearGradient id="t" x1="253.83" x2="270.71" xlink:href="#b" y1="82.24" y2="82.24"/><linearGradient id="u" x1="166.06" x2="183.19" xlink:href="#b" y1="172.02" y2="172.02"/><linearGradient id="v" x1="187.3" x2="204.19" xlink:href="#b" y1="222.07" y2="222.07"/><linearGradient id="w" x1="196.54" x2="213.55" xlink:href="#b" y1="262.78" y2="262.78"/><linearGradient id="x" x1="272" x2="288.94" xlink:href="#b" y1="180.29" y2="180.29"/><linearGradient id="y" x1="156.16" x2="173.11" xlink:href="#b" y1="282.09" y2="282.09"/><linearGradient id="z" x1="135.1" x2="164.88" xlink:href="#b" y1="150.01" y2="150.01"/><radialGradient id="A" cx="149.99" cy="150.01" gradientTransform="matrix(.43 .93 -.93 .43 225.65 -54.25)" gradientUnits="userSpaceOnUse" r="10.73"><stop offset="0" stop-color="#fff"/><stop offset=".34" stop-color="#fdfdfd"/><stop offset=".51" stop-color="#f5f5f5"/><stop offset=".65" stop-color="#e8e8e8"/><stop offset=".77" stop-color="#d5d5d5"/><stop offset=".87" stop-color="#bcbcbc"/><stop offset=".96" stop-color="#9e9e9e"/><stop offset="1" stop-color="#919191"/></radialGradient><circle cx="150" cy="150" fill="url(#a)" r="149.96"/><circle cx="233.6" cy="150" fill="url(#b)" r="51.9"/><circle cx="66.3" cy="150" fill="url(#c)" r="51.9"/><path d="m155.08 62.15-11.08-2.88-7.25 8.79-.62-11.37-10.66-4.24 10.68-4.04.68-11.52 7.21 8.99 11.09-2.98-6.24 9.69z" fill="url(#d)"/><path d="m197.58 28.88-9.85-.13-4.25 8.84-2.85-9.37-9.79-1.36 8.1-5.57-1.81-9.76 7.87 6.02 8.66-4.78-3.22 9.39z" fill="url(#e)"/><path d="m92.64 48.92-9.84.51-3.67 9.09-3.46-9.16-9.85-.72 7.72-6.08-2.43-9.63 8.24 5.5 8.33-5.33-2.61 9.58z" fill="url(#f)"/><path d="m163.09 90.03-6.32.72-2.01 6-2.58-5.77-6.38-.07 4.73-4.23-1.95-6.1 5.53 3.21 5.16-3.76-1.3 6.27z" fill="url(#g)"/><path d="m115.13 89.78-6.35-.37-3 5.57-1.56-6.13-6.27-1.16 5.38-3.35-.88-6.35 4.9 4.11 5.73-2.82-2.36 5.95z" fill="url(#h)"/><path d="m48.05 80.58-4.97-3.97-5.67 2.81 2.26-5.9-4.44-4.58 6.33.38 2.96-5.69 1.62 6.19 6.3 1.01-5.37 3.5z" fill="url(#i)"/><path d="m166.73 122.64-5.27-3.57-5.43 3.25 1.79-6.06-4.79-4.21 6.34-.13 2.5-5.9 2.1 6.04 6.36.5-5.07 3.92z" fill="url(#j)"/><path d="m202.92 82.64-4.98-3.95-5.66 2.84 2.23-5.91-4.47-4.55 6.34.34 2.92-5.7 1.65 6.18 6.31.97-5.34 3.53z" fill="url(#k)"/><path d="m236.24 57.15-5.11-3.77-5.56 3.03 2.03-5.99-4.62-4.4 6.34.14 2.74-5.8 1.85 6.12 6.34.75-5.22 3.71z" fill="url(#l)"/><path d="m129.67 23.08-5.04-3.87-5.62 2.91 2.15-5.94-4.53-4.49 6.34.26 2.85-5.74 1.74 6.15 6.32.89-5.3 3.6z" fill="url(#m)"/><path d="m270.54 85.83-5.04-3.88-5.62 2.92 2.15-5.94-4.53-4.49 6.34.26 2.85-5.75 1.73 6.16 6.32.88-5.3 3.6z" fill="url(#n)"/><path d="m147.4 234.72 11.08 2.88 7.25-8.78.62 11.36 10.66 4.25-10.69 4.03-.67 11.52-7.21-8.98-11.09 2.98 6.24-9.69z" fill="url(#o)"/><path d="m104.89 267.99 9.86.13 4.25-8.83 2.85 9.37 9.79 1.35-8.1 5.57 1.8 9.77-7.87-6.02-8.66 4.77 3.23-9.39z" fill="url(#p)"/><path d="m209.84 247.96 9.84-.52 3.67-9.09 3.46 9.17 9.85.72-7.72 6.08 2.43 9.63-8.24-5.5-8.33 5.32 2.61-9.57z" fill="url(#q)"/><path d="m139.39 206.85 6.32-.72 2-6 2.59 5.76 6.38.08-4.73 4.22 1.95 6.11-5.53-3.22-5.16 3.76 1.3-6.27z" fill="url(#r)"/><path d="m187.35 207.1 6.35.37 3-5.57 1.56 6.12 6.27 1.16-5.38 3.36.88 6.35-4.9-4.12-5.73 2.83 2.36-5.96z" fill="url(#s)"/><path d="m254.43 216.29 4.97 3.98 5.67-2.81-2.27 5.9 4.45 4.57-6.33-.38-2.96 5.69-1.62-6.19-6.3-1 5.37-3.5z" fill="url(#t)"/><path d="m135.75 174.24 5.27 3.57 5.43-3.25-1.79 6.06 4.79 4.21-6.35.12-2.49 5.9-2.1-6.04-6.36-.5 5.07-3.91z" fill="url(#u)"/><path d="m99.56 214.24 4.99 3.95 5.65-2.85-2.23 5.92 4.47 4.55-6.34-.35-2.92 5.71-1.65-6.18-6.31-.97 5.34-3.53z" fill="url(#v)"/><path d="m66.24 239.72 5.11 3.78 5.56-3.03-2.03 5.99 4.62 4.39-6.35-.13-2.73 5.8-1.86-6.12-6.33-.76 5.22-3.71z" fill="url(#w)"/><path d="m172.81 273.79 5.04 3.88 5.62-2.92-2.16 5.94 4.53 4.49-6.33-.26-2.85 5.75-1.73-6.16-6.33-.88 5.3-3.6z" fill="url(#x)"/><path d="m31.94 211.04 5.04 3.88 5.62-2.92-2.15 5.95 4.53 4.49-6.34-.26-2.85 5.74-1.73-6.16-6.32-.88 5.29-3.6z" fill="url(#y)"/><circle cx="150" cy="150" fill="url(#z)" r="14.89"/><circle cx="150" cy="150" fill="url(#A)" r="11.01"/></svg>